# xmcd
#
# Track frame offsets:
# 150
# 25660
# 52862
# 78540
# 102990
# 128560
# 153117
# 178120
# 194695
# 221082
#
# Disc length: 3343 seconds
#
#
# Revision: 0
# Processed by: cddbd v1.5PL3 Copyright (c) Steve Scherf et al.
# Submitted via: FreeRIP 2.30 
#
DISCID=7f0d0d0a
DTITLE=Rev. Charles G. Hayes and The Cosmospolitan Choir - Have Thine Own Way Lord
DYEAR=2000
DGENRE=Gospel
TTITLE0=Running Up The King's Highway
TTITLE1=Set Yourself
TTITLE2=Have Thine Own Way Lord
TTITLE3=Great Is The Lord
TTITLE4=Great Is The Lord
TTITLE5=He Lifted Me
TTITLE6=No Turning Back
TTITLE7=God Is A God Of Another Chance
TTITLE8=You Don't Know Like I Know
TTITLE9=Because The Lord Brought Me Through
EXTD=
EXTT0=
EXTT1=
EXTT2=
EXTT3=
EXTT4=
EXTT5=
EXTT6=
EXTT7=
EXTT8=
EXTT9=
PLAYORDER=
